<svg width="1600" height="500" viewBox="0 0 1600 500" fill="none" xmlns="http://www.w3.org/2000/svg">
<path d="M110 155H200V335L150 385H110V155Z" fill="black" stroke="white" stroke-width="6" stroke-linejoin="round"/>
<path d="M230 105H320V335L270 385H230V105Z" fill="black" stroke="white" stroke-width="6" stroke-linejoin="round"/>
<path d="M350 55H440V285L390 335H350V55Z" fill="black" stroke="white" stroke-width="6" stroke-linejoin="round"/>
<path d="M152.336 259.344H177.248V265.392H152.336V259.344ZM143.408 222.768H186.392V228.888H143.408V222.768ZM145.352 231.84H184.448V237.6H145.352V231.84ZM141.176 240.624H188.696V246.816H141.176V240.624ZM152.408 268.632H177.32V274.68H152.408V268.632ZM146 249.624H176.816V255.96H153.992V285.48H146V249.624ZM175.592 249.624H183.8V277.2C183.8 279.072 183.56 280.56 183.08 281.664C182.648 282.768 181.76 283.608 180.416 284.184C179.168 284.76 177.632 285.12 175.808 285.264C173.984 285.408 171.8 285.456 169.256 285.408C169.112 284.352 168.8 283.104 168.32 281.664C167.888 280.272 167.432 279.072 166.952 278.064C168.44 278.16 169.904 278.208 171.344 278.208C172.832 278.208 173.816 278.208 174.296 278.208C175.16 278.208 175.592 277.824 175.592 277.056V249.624ZM160.4 217.8H168.968V242.712H160.4V217.8ZM129.368 217.8H137.216V285.408H129.368V217.8ZM123.176 232.056L129.224 232.848C129.224 234.816 129.08 237.024 128.792 239.472C128.552 241.92 128.24 244.344 127.856 246.744C127.472 249.144 127.016 251.28 126.488 253.152L120.224 250.992C120.752 249.312 121.208 247.392 121.592 245.232C121.976 243.024 122.312 240.768 122.6 238.464C122.888 236.16 123.08 234.024 123.176 232.056ZM135.992 229.896L141.32 227.664C142.136 229.296 142.952 231.096 143.768 233.064C144.584 234.984 145.184 236.616 145.568 237.96L139.88 240.696C139.544 239.304 138.992 237.576 138.224 235.512C137.456 233.448 136.712 231.576 135.992 229.896Z" fill="white"/>
<path d="M258.603 250C263.021 250 266.603 246.418 266.603 242C266.603 237.582 263.021 234 258.603 234C254.185 234 250.603 237.582 250.603 242C250.603 246.418 254.185 250 258.603 250Z" fill="white"/>
<path d="M258.603 215C263.021 215 266.603 211.418 266.603 207C266.603 202.582 263.021 199 258.603 199C254.185 199 250.603 202.582 250.603 207C250.603 211.418 254.185 215 258.603 215Z" fill="white"/>
<path d="M284.109 254.5C302.776 233.167 302.776 211.833 284.109 190.5" stroke="white" stroke-width="6" stroke-linecap="round"/>
<path d="M389.456 153.072H415.952V160.272H389.456V153.072ZM398.528 191.16H419.912V198H398.528V191.16ZM398.312 203.4H420.2V210.528H398.312V203.4ZM387.152 166.392H428.696V173.736H387.152V166.392ZM399.392 145.872H407.384V170.784H399.392V145.872ZM371.888 145.872L379.376 148.536C378.416 150.408 377.408 152.328 376.352 154.296C375.296 156.216 374.264 158.088 373.256 159.912C372.248 161.688 371.288 163.248 370.376 164.592L364.616 162.216C365.48 160.728 366.368 159.048 367.28 157.176C368.192 155.304 369.056 153.36 369.872 151.344C370.736 149.328 371.408 147.504 371.888 145.872ZM380.024 154.44L387.08 157.608C385.304 160.296 383.384 163.128 381.32 166.104C379.256 169.08 377.192 171.936 375.128 174.672C373.064 177.408 371.096 179.808 369.224 181.872L364.256 179.136C365.6 177.504 366.992 175.68 368.432 173.664C369.92 171.6 371.36 169.464 372.752 167.256C374.192 165 375.536 162.768 376.784 160.56C378.032 158.352 379.112 156.312 380.024 154.44ZM360.8 162.72L365.048 156.888C366.248 158.04 367.496 159.288 368.792 160.632C370.088 161.976 371.288 163.32 372.392 164.664C373.496 166.008 374.312 167.256 374.84 168.408L370.232 174.96C369.704 173.808 368.912 172.512 367.856 171.072C366.848 169.632 365.72 168.192 364.472 166.752C363.224 165.264 362 163.92 360.8 162.72ZM377.576 171.648L383.624 169.2C384.584 170.736 385.472 172.416 386.288 174.24C387.152 176.064 387.92 177.864 388.592 179.64C389.264 181.368 389.744 182.928 390.032 184.32L383.48 187.2C383.288 185.856 382.88 184.296 382.256 182.52C381.632 180.696 380.912 178.848 380.096 176.976C379.328 175.104 378.488 173.328 377.576 171.648ZM360.584 177.408C363.8 177.264 367.592 177.072 371.96 176.832C376.328 176.544 380.768 176.256 385.28 175.968L385.424 183.024C381.2 183.36 376.976 183.696 372.752 184.032C368.576 184.32 364.808 184.608 361.448 184.896L360.584 177.408ZM379.592 189.72L385.568 187.92C386.432 189.888 387.2 192.072 387.872 194.472C388.592 196.872 389.048 198.912 389.24 200.592L382.832 202.68C382.688 200.952 382.304 198.888 381.68 196.488C381.104 194.04 380.408 191.784 379.592 189.72ZM363.68 188.136L370.592 189.36C370.208 192.816 369.632 196.224 368.864 199.584C368.144 202.896 367.28 205.704 366.272 208.008C365.792 207.672 365.168 207.312 364.4 206.928C363.632 206.544 362.84 206.184 362.024 205.848C361.208 205.464 360.512 205.176 359.936 204.984C360.992 202.824 361.808 200.232 362.384 197.208C362.96 194.184 363.392 191.16 363.68 188.136ZM371.528 181.296H379.016V213.48H371.528V181.296ZM420.56 147.24L428.12 149.688C424.616 159 419.696 167.136 413.36 174.096C407.072 181.008 399.272 186.792 389.96 191.448C389.624 190.824 389.144 190.128 388.52 189.36C387.944 188.592 387.32 187.848 386.648 187.128C385.976 186.408 385.352 185.832 384.776 185.4C393.56 181.32 400.976 175.992 407.024 169.416C413.12 162.84 417.632 155.448 420.56 147.24ZM401.768 178.92H420.128V185.976H401.768V213.408H393.92V183.312L398.096 178.92H401.768ZM416.456 178.92H424.736V213.48H416.456V178.92Z" fill="white"/>
<path d="M505 237V146H531V159H544V172H557V185H570V146H596V237H570V211H557V198H544V185H531V237H505ZM609 237V146H700V159H635V185H687V198H635V224H700V237H609ZM726 237V224H713V146H739V224H778V146H804V224H791V237H726ZM817 237V146H895V159H908V198H882V211H895V224H908V237H869V224H856V211H843V237H817ZM843 198H869V185H882V159H843V198ZM934 237V224H921V159H934V146H999V159H1012V224H999V237H934ZM947 224H986V159H947V224ZM1025 237V146H1051V159H1064V172H1077V185H1090V146H1116V237H1090V211H1077V198H1064V185H1051V237H1025ZM1142 237V224H1129V159H1142V146H1207V159H1220V224H1207V237H1142ZM1155 224H1194V159H1155V224ZM1246 237V224H1272V159H1246V146H1324V159H1298V224H1324V237H1246ZM1350 237V224H1337V211H1363V224H1402V198H1350V185H1337V159H1350V146H1415V159H1428V172H1402V159H1363V185H1415V198H1428V224H1415V237H1350ZM1441 237V146H1532V159H1467V185H1519V198H1467V224H1532V237H1441Z" fill="white"/>
<path d="M513.99 319.328H517.35V328.4H527.85V319.328H531.21V341H527.85V331.256H517.35V341H513.99V319.328ZM548.162 341.504C546.594 341.504 545.18 341.238 543.92 340.706C542.688 340.174 541.624 339.418 540.728 338.438C539.86 337.43 539.188 336.24 538.712 334.868C538.236 333.468 537.998 331.914 537.998 330.206C537.998 328.47 538.236 326.902 538.712 325.502C539.216 324.102 539.902 322.912 540.77 321.932C541.638 320.924 542.674 320.154 543.878 319.622C545.11 319.09 546.468 318.824 547.952 318.824C549.408 318.824 550.724 319.09 551.9 319.622C553.104 320.154 554.126 320.896 554.966 321.848C555.806 322.772 556.45 323.878 556.898 325.166C557.346 326.454 557.57 327.868 557.57 329.408V331.004H541.526V332.012C541.526 332.964 541.68 333.846 541.988 334.658C542.296 335.47 542.73 336.17 543.29 336.758C543.878 337.346 544.578 337.808 545.39 338.144C546.23 338.452 547.154 338.606 548.162 338.606C549.618 338.606 550.878 338.27 551.942 337.598C553.006 336.926 553.818 336.002 554.378 334.826L556.856 336.506C556.212 337.962 555.134 339.166 553.622 340.118C552.138 341.042 550.318 341.504 548.162 341.504ZM547.952 321.596C547.028 321.596 546.174 321.764 545.39 322.1C544.606 322.436 543.92 322.898 543.332 323.486C542.772 324.074 542.324 324.774 541.988 325.586C541.68 326.37 541.526 327.238 541.526 328.19V328.484H553.958V328.022C553.958 327.07 553.804 326.202 553.496 325.418C553.216 324.634 552.81 323.962 552.278 323.402C551.774 322.814 551.144 322.366 550.388 322.058C549.66 321.75 548.848 321.596 547.952 321.596ZM564.357 319.328H567.717V330.374L567.381 335.918H567.549L578.427 319.328H581.577V341H578.217V329.954L578.553 324.41H578.385L567.507 341H564.357V319.328ZM572.841 316.01C571.413 316.01 570.251 315.702 569.355 315.086C568.459 314.442 567.675 313.448 567.003 312.104L565.827 309.71L568.851 308.744L570.531 313.196C570.839 313.308 571.217 313.378 571.665 313.406C572.113 313.434 572.505 313.448 572.841 313.448C573.177 313.448 573.569 313.434 574.017 313.406C574.465 313.378 574.843 313.308 575.151 313.196L576.831 308.744L579.855 309.71L578.679 312.104C578.007 313.448 577.223 314.442 576.327 315.086C575.431 315.702 574.269 316.01 572.841 316.01ZM589.541 319.328H592.901V322.856H593.069C594.469 320.168 596.695 318.824 599.747 318.824C602.407 318.824 604.479 319.818 605.963 321.806C607.475 323.794 608.231 326.58 608.231 330.164C608.231 333.748 607.475 336.534 605.963 338.522C604.479 340.51 602.407 341.504 599.747 341.504C596.695 341.504 594.469 340.16 593.069 337.472H592.901V349.4H589.541V319.328ZM598.445 338.522C600.405 338.522 601.917 337.934 602.981 336.758C604.073 335.554 604.619 333.972 604.619 332.012V328.316C604.619 326.356 604.073 324.788 602.981 323.612C601.917 322.408 600.405 321.806 598.445 321.806C597.689 321.806 596.975 321.904 596.303 322.1C595.631 322.296 595.043 322.59 594.539 322.982C594.035 323.346 593.629 323.808 593.321 324.368C593.041 324.9 592.901 325.53 592.901 326.258V334.07C592.901 334.798 593.041 335.442 593.321 336.002C593.629 336.534 594.035 336.996 594.539 337.388C595.043 337.752 595.631 338.032 596.303 338.228C596.975 338.424 597.689 338.522 598.445 338.522ZM623.334 341.504C621.822 341.504 620.45 341.238 619.218 340.706C618.014 340.174 616.978 339.418 616.11 338.438C615.27 337.43 614.626 336.24 614.178 334.868C613.73 333.468 613.506 331.9 613.506 330.164C613.506 328.456 613.73 326.902 614.178 325.502C614.626 324.102 615.27 322.912 616.11 321.932C616.978 320.924 618.014 320.154 619.218 319.622C620.45 319.09 621.822 318.824 623.334 318.824C624.846 318.824 626.204 319.09 627.408 319.622C628.64 320.154 629.676 320.924 630.516 321.932C631.384 322.912 632.042 324.102 632.49 325.502C632.938 326.902 633.162 328.456 633.162 330.164C633.162 331.9 632.938 333.468 632.49 334.868C632.042 336.24 631.384 337.43 630.516 338.438C629.676 339.418 628.64 340.174 627.408 340.706C626.204 341.238 624.846 341.504 623.334 341.504ZM623.334 338.606C625.21 338.606 626.722 338.046 627.87 336.926C629.018 335.806 629.592 334.07 629.592 331.718V328.61C629.592 326.258 629.018 324.522 627.87 323.402C626.722 322.282 625.21 321.722 623.334 321.722C621.458 321.722 619.946 322.282 618.798 323.402C617.65 324.522 617.076 326.258 617.076 328.61V331.718C617.076 334.07 617.65 335.806 618.798 336.926C619.946 338.046 621.458 338.606 623.334 338.606ZM649.274 341.504C647.706 341.504 646.306 341.238 645.074 340.706C643.87 340.146 642.848 339.376 642.008 338.396C641.168 337.416 640.524 336.226 640.076 334.826C639.656 333.426 639.446 331.872 639.446 330.164C639.446 328.456 639.67 326.902 640.118 325.502C640.566 324.102 641.21 322.912 642.05 321.932C642.89 320.924 643.912 320.154 645.116 319.622C646.32 319.09 647.692 318.824 649.232 318.824C651.332 318.824 653.04 319.286 654.356 320.21C655.672 321.134 656.638 322.338 657.254 323.822L654.566 325.25C654.174 324.13 653.516 323.262 652.592 322.646C651.696 322.03 650.576 321.722 649.232 321.722C648.252 321.722 647.37 321.89 646.586 322.226C645.83 322.534 645.186 322.982 644.654 323.57C644.122 324.158 643.716 324.858 643.436 325.67C643.184 326.482 643.058 327.364 643.058 328.316V332.012C643.058 332.964 643.184 333.846 643.436 334.658C643.716 335.47 644.122 336.17 644.654 336.758C645.186 337.346 645.844 337.808 646.628 338.144C647.412 338.452 648.308 338.606 649.316 338.606C650.772 338.606 651.976 338.27 652.928 337.598C653.88 336.926 654.636 336.002 655.196 334.826L657.59 336.464C656.946 337.92 655.938 339.124 654.566 340.076C653.222 341.028 651.458 341.504 649.274 341.504ZM674.08 341.504C672.512 341.504 671.098 341.238 669.838 340.706C668.606 340.174 667.542 339.418 666.646 338.438C665.778 337.43 665.106 336.24 664.63 334.868C664.154 333.468 663.916 331.914 663.916 330.206C663.916 328.47 664.154 326.902 664.63 325.502C665.134 324.102 665.82 322.912 666.688 321.932C667.556 320.924 668.592 320.154 669.796 319.622C671.028 319.09 672.386 318.824 673.87 318.824C675.326 318.824 676.642 319.09 677.818 319.622C679.022 320.154 680.044 320.896 680.884 321.848C681.724 322.772 682.368 323.878 682.816 325.166C683.264 326.454 683.488 327.868 683.488 329.408V331.004H667.444V332.012C667.444 332.964 667.598 333.846 667.906 334.658C668.214 335.47 668.648 336.17 669.208 336.758C669.796 337.346 670.496 337.808 671.308 338.144C672.148 338.452 673.072 338.606 674.08 338.606C675.536 338.606 676.796 338.27 677.86 337.598C678.924 336.926 679.736 336.002 680.296 334.826L682.774 336.506C682.13 337.962 681.052 339.166 679.54 340.118C678.056 341.042 676.236 341.504 674.08 341.504ZM673.87 321.596C672.946 321.596 672.092 321.764 671.308 322.1C670.524 322.436 669.838 322.898 669.25 323.486C668.69 324.074 668.242 324.774 667.906 325.586C667.598 326.37 667.444 327.238 667.444 328.19V328.484H679.876V328.022C679.876 327.07 679.722 326.202 679.414 325.418C679.134 324.634 678.728 323.962 678.196 323.402C677.692 322.814 677.062 322.366 676.306 322.058C675.578 321.75 674.766 321.596 673.87 321.596ZM697.205 322.184H689.225V319.328H708.545V322.184H700.565V341H697.205V322.184ZM715.459 319.328H718.819V330.374L718.483 335.918H718.651L729.529 319.328H732.679V341H729.319V329.954L729.655 324.41H729.487L718.609 341H715.459V319.328ZM762.76 338.144H765.196C766.092 336.716 766.792 335.036 767.296 333.104C767.828 331.144 768.094 328.848 768.094 326.216V319.328H782.08V338.144H785.65V346.88H782.584V341H765.826V346.88H762.76V338.144ZM778.72 338.144V322.184H771.37V326.384C771.37 328.988 771.16 331.228 770.74 333.104C770.32 334.952 769.69 336.632 768.85 338.144H778.72ZM788.112 338.144H790.8C791.22 337.612 791.584 336.982 791.892 336.254C792.228 335.526 792.494 334.658 792.69 333.65C792.914 332.642 793.082 331.48 793.194 330.164C793.306 328.82 793.362 327.266 793.362 325.502V319.328H807.768V341H804.408V322.184H796.638V325.586C796.638 329.506 796.344 332.586 795.756 334.826C795.196 337.038 794.44 338.62 793.488 339.572C792.956 340.104 792.368 340.482 791.724 340.706C791.08 340.902 790.31 341 789.414 341H788.112V338.144ZM815.059 338.144H817.495L819.385 334.574C819.721 333.93 820.085 333.44 820.477 333.104C820.869 332.768 821.345 332.558 821.905 332.474V332.306C820.141 332.222 818.699 331.662 817.579 330.626C816.487 329.562 815.941 328.022 815.941 326.006C815.941 323.934 816.571 322.31 817.831 321.134C819.091 319.93 820.827 319.328 823.039 319.328H832.783V341H829.423V332.642H824.173L821.191 338.228C820.687 339.152 820.141 339.852 819.553 340.328C818.993 340.776 818.265 341 817.369 341H815.059V338.144ZM829.423 322.184H823.543C822.283 322.184 821.289 322.436 820.561 322.94C819.861 323.444 819.511 324.256 819.511 325.376V326.678C819.511 327.798 819.861 328.61 820.561 329.114C821.289 329.618 822.283 329.87 823.543 329.87H829.423V322.184ZM875.17 341.504C873.658 341.504 872.286 341.238 871.054 340.706C869.85 340.174 868.814 339.418 867.946 338.438C867.106 337.43 866.462 336.24 866.014 334.868C865.566 333.468 865.342 331.9 865.342 330.164C865.342 328.456 865.566 326.902 866.014 325.502C866.462 324.102 867.106 322.912 867.946 321.932C868.814 320.924 869.85 320.154 871.054 319.622C872.286 319.09 873.658 318.824 875.17 318.824C876.682 318.824 878.04 319.09 879.244 319.622C880.476 320.154 881.512 320.924 882.352 321.932C883.22 322.912 883.878 324.102 884.326 325.502C884.774 326.902 884.998 328.456 884.998 330.164C884.998 331.9 884.774 333.468 884.326 334.868C883.878 336.24 883.22 337.43 882.352 338.438C881.512 339.418 880.476 340.174 879.244 340.706C878.04 341.238 876.682 341.504 875.17 341.504ZM875.17 338.606C877.046 338.606 878.558 338.046 879.706 336.926C880.854 335.806 881.428 334.07 881.428 331.718V328.61C881.428 326.258 880.854 324.522 879.706 323.402C878.558 322.282 877.046 321.722 875.17 321.722C873.294 321.722 871.782 322.282 870.634 323.402C869.486 324.522 868.912 326.258 868.912 328.61V331.718C868.912 334.07 869.486 335.806 870.634 336.926C871.782 338.046 873.294 338.606 875.17 338.606ZM900.396 341.504C898.94 341.504 897.61 341.238 896.406 340.706C895.23 340.174 894.208 339.362 893.34 338.27C892.5 337.178 891.842 335.806 891.366 334.154C890.89 332.474 890.652 330.486 890.652 328.19C890.652 324.998 890.862 322.282 891.282 320.042C891.73 317.802 892.402 315.954 893.298 314.498C894.222 313.042 895.384 311.964 896.784 311.264C898.212 310.564 899.906 310.144 901.866 310.004L908.502 309.584V312.902L901.53 313.364C900.326 313.448 899.29 313.672 898.422 314.036C897.582 314.4 896.868 314.988 896.28 315.8C895.72 316.584 895.272 317.62 894.936 318.908C894.6 320.196 894.348 321.806 894.18 323.738H894.39C894.978 322.338 895.804 321.26 896.868 320.504C897.932 319.72 899.262 319.328 900.858 319.328C902.23 319.328 903.49 319.58 904.638 320.084C905.786 320.588 906.766 321.316 907.578 322.268C908.39 323.192 909.02 324.354 909.468 325.754C909.944 327.126 910.182 328.694 910.182 330.458C910.182 332.11 909.944 333.608 909.468 334.952C908.992 336.296 908.32 337.458 907.452 338.438C906.584 339.418 905.548 340.174 904.344 340.706C903.168 341.238 901.852 341.504 900.396 341.504ZM900.396 338.606C902.216 338.606 903.7 338.046 904.848 336.926C906.024 335.778 906.612 334.112 906.612 331.928V329.282C906.612 326.93 906.038 325.166 904.89 323.99C903.77 322.814 902.3 322.226 900.48 322.226C898.352 322.226 896.77 322.744 895.734 323.78C894.726 324.788 894.222 326.09 894.222 327.686V331.928C894.222 334.112 894.782 335.778 895.902 336.926C897.05 338.046 898.548 338.606 900.396 338.606ZM915.206 319.328H918.566V327.182H922.22C924.404 327.182 926.14 327.798 927.428 329.03C928.716 330.262 929.36 331.956 929.36 334.112C929.36 336.296 928.73 337.99 927.47 339.194C926.21 340.398 924.474 341 922.262 341H915.206V319.328ZM921.758 338.144C923.018 338.144 923.998 337.892 924.698 337.388C925.426 336.884 925.79 336.072 925.79 334.952V333.188C925.79 332.068 925.426 331.27 924.698 330.794C923.998 330.29 923.018 330.038 921.758 330.038H918.566V338.144H921.758ZM932.51 319.328H935.87V341H932.51V319.328ZM955.341 331.046H955.131C954.347 331.914 953.451 332.572 952.443 333.02C951.463 333.44 950.203 333.65 948.663 333.65C946.311 333.65 944.519 333.104 943.287 332.012C942.083 330.892 941.481 329.212 941.481 326.972V319.328H944.841V326.678C944.841 328.022 945.219 329.016 945.975 329.66C946.731 330.304 947.963 330.626 949.671 330.626C951.351 330.626 952.709 330.416 953.745 329.996C954.809 329.548 955.341 328.876 955.341 327.98V319.328H958.701V341H955.341V331.046ZM967.295 319.328H970.655V328.4H981.155V319.328H984.515V341H981.155V331.256H970.655V341H967.295V319.328ZM990.756 319.328H994.116V327.182H997.77C999.954 327.182 1001.69 327.798 1002.98 329.03C1004.27 330.262 1004.91 331.956 1004.91 334.112C1004.91 336.296 1004.28 337.99 1003.02 339.194C1001.76 340.398 1000.02 341 997.812 341H990.756V319.328ZM997.308 338.144C998.568 338.144 999.548 337.892 1000.25 337.388C1000.98 336.884 1001.34 336.072 1001.34 334.952V333.188C1001.34 332.068 1000.98 331.27 1000.25 330.794C999.548 330.29 998.568 330.038 997.308 330.038H994.116V338.144H997.308ZM1008.06 319.328H1011.42V341H1008.06V319.328ZM1016.23 341L1024.3 329.996L1016.44 319.328H1020.48L1023.75 323.906L1026.36 327.518H1026.52L1029.04 323.906L1032.28 319.328H1036.14L1028.2 329.954L1036.35 341H1032.32L1028.67 335.918L1026.19 332.474H1026.02L1023.63 335.918L1020.1 341H1016.23ZM1065.13 338.144H1067.82C1068.24 337.612 1068.6 336.982 1068.91 336.254C1069.25 335.526 1069.51 334.658 1069.71 333.65C1069.93 332.642 1070.1 331.48 1070.21 330.164C1070.33 328.82 1070.38 327.266 1070.38 325.502V319.328H1084.79V341H1081.43V322.184H1073.66V325.586C1073.66 329.506 1073.36 332.586 1072.78 334.826C1072.22 337.038 1071.46 338.62 1070.51 339.572C1069.98 340.104 1069.39 340.482 1068.74 340.706C1068.1 340.902 1067.33 341 1066.43 341H1065.13V338.144ZM1105.56 341.504C1104.5 341.504 1103.54 341.35 1102.7 341.042C1101.86 340.762 1101.15 340.244 1100.56 339.488C1099.97 338.704 1099.51 337.64 1099.18 336.296C1098.87 334.952 1098.69 333.244 1098.63 331.172H1094.6V341H1091.49V319.328H1094.6V328.526H1098.67C1098.76 326.594 1098.95 324.998 1099.26 323.738C1099.6 322.478 1100.06 321.484 1100.65 320.756C1101.23 320.028 1101.93 319.524 1102.75 319.244C1103.56 318.964 1104.5 318.824 1105.56 318.824C1106.68 318.824 1107.66 318.992 1108.5 319.328C1109.37 319.636 1110.1 320.21 1110.68 321.05C1111.27 321.89 1111.72 323.052 1112.03 324.536C1112.34 325.992 1112.49 327.868 1112.49 330.164C1112.49 332.46 1112.34 334.35 1112.03 335.834C1111.72 337.29 1111.27 338.438 1110.68 339.278C1110.1 340.118 1109.37 340.692 1108.5 341C1107.66 341.336 1106.68 341.504 1105.56 341.504ZM1105.56 338.732C1106.18 338.732 1106.71 338.634 1107.16 338.438C1107.63 338.242 1108.02 337.906 1108.33 337.43C1108.64 336.926 1108.86 336.254 1109 335.414C1109.17 334.546 1109.26 333.454 1109.26 332.138V328.19C1109.26 326.874 1109.17 325.796 1109 324.956C1108.86 324.088 1108.64 323.416 1108.33 322.94C1108.02 322.436 1107.63 322.086 1107.16 321.89C1106.71 321.694 1106.18 321.596 1105.56 321.596C1104.94 321.596 1104.4 321.694 1103.92 321.89C1103.47 322.086 1103.1 322.436 1102.79 322.94C1102.48 323.416 1102.24 324.088 1102.07 324.956C1101.93 325.796 1101.86 326.874 1101.86 328.19V332.138C1101.86 333.454 1101.93 334.546 1102.07 335.414C1102.24 336.254 1102.48 336.926 1102.79 337.43C1103.1 337.906 1103.47 338.242 1103.92 338.438C1104.4 338.634 1104.94 338.732 1105.56 338.732ZM1115.33 338.144H1117.77C1118.66 336.716 1119.36 335.036 1119.87 333.104C1120.4 331.144 1120.66 328.848 1120.66 326.216V319.328H1134.65V338.144H1138.22V346.88H1135.15V341H1118.4V346.88H1115.33V338.144ZM1131.29 338.144V322.184H1123.94V326.384C1123.94 328.988 1123.73 331.228 1123.31 333.104C1122.89 334.952 1122.26 336.632 1121.42 338.144H1131.29ZM1152.57 341.504C1151 341.504 1149.59 341.238 1148.33 340.706C1147.09 340.174 1146.03 339.418 1145.13 338.438C1144.27 337.43 1143.59 336.24 1143.12 334.868C1142.64 333.468 1142.4 331.914 1142.4 330.206C1142.4 328.47 1142.64 326.902 1143.12 325.502C1143.62 324.102 1144.31 322.912 1145.18 321.932C1146.04 320.924 1147.08 320.154 1148.28 319.622C1149.52 319.09 1150.87 318.824 1152.36 318.824C1153.81 318.824 1155.13 319.09 1156.31 319.622C1157.51 320.154 1158.53 320.896 1159.37 321.848C1160.21 322.772 1160.86 323.878 1161.3 325.166C1161.75 326.454 1161.98 327.868 1161.98 329.408V331.004H1145.93V332.012C1145.93 332.964 1146.09 333.846 1146.39 334.658C1146.7 335.47 1147.14 336.17 1147.7 336.758C1148.28 337.346 1148.98 337.808 1149.8 338.144C1150.64 338.452 1151.56 338.606 1152.57 338.606C1154.02 338.606 1155.28 338.27 1156.35 337.598C1157.41 336.926 1158.22 336.002 1158.78 334.826L1161.26 336.506C1160.62 337.962 1159.54 339.166 1158.03 340.118C1156.54 341.042 1154.72 341.504 1152.57 341.504ZM1152.36 321.596C1151.43 321.596 1150.58 321.764 1149.8 322.1C1149.01 322.436 1148.33 322.898 1147.74 323.486C1147.18 324.074 1146.73 324.774 1146.39 325.586C1146.09 326.37 1145.93 327.238 1145.93 328.19V328.484H1158.36V328.022C1158.36 327.07 1158.21 326.202 1157.9 325.418C1157.62 324.634 1157.22 323.962 1156.68 323.402C1156.18 322.814 1155.55 322.366 1154.79 322.058C1154.07 321.75 1153.25 321.596 1152.36 321.596ZM1168.76 319.328H1172.12V330.374L1171.79 335.918H1171.96L1182.83 319.328H1185.98V341H1182.62V329.954L1182.96 324.41H1182.79L1171.91 341H1168.76V319.328ZM1177.25 316.01C1175.82 316.01 1174.66 315.702 1173.76 315.086C1172.87 314.442 1172.08 313.448 1171.41 312.104L1170.23 309.71L1173.26 308.744L1174.94 313.196C1175.25 313.308 1175.62 313.378 1176.07 313.406C1176.52 313.434 1176.91 313.448 1177.25 313.448C1177.58 313.448 1177.98 313.434 1178.42 313.406C1178.87 313.378 1179.25 313.308 1179.56 313.196L1181.24 308.744L1184.26 309.71L1183.09 312.104C1182.41 313.448 1181.63 314.442 1180.73 315.086C1179.84 315.702 1178.68 316.01 1177.25 316.01Z" fill="white"/>
</svg>
